<svg width="1200" height="900" viewBox="0 0 1200 900" xmlns="http://www.w3.org/2000/svg">
  <defs>
    <linearGradient id="bg" x1="0%" y1="0%" x2="100%" y2="100%">
      <stop offset="0%" style="stop-color:#1F2937;stop-opacity:1" />
      <stop offset="100%" style="stop-color:#374151;stop-opacity:1" />
    </linearGradient>
    <linearGradient id="accent" x1="0%" y1="0%" x2="100%" y2="0%">
      <stop offset="0%" style="stop-color:#10B981;stop-opacity:1" />
      <stop offset="100%" style="stop-color:#06B6D4;stop-opacity:1" />
    </linearGradient>
  </defs>
  
  <!-- Background -->
  <rect width="1200" height="900" fill="url(#bg)"/>
  
  <!-- Scan lines effect -->
  <pattern id="scanlines" x="0" y="0" width="1" height="4" patternUnits="userSpaceOnUse">
    <rect width="1" height="2" fill="rgba(16, 185, 129, 0.03)"/>
  </pattern>
  <rect width="1200" height="900" fill="url(#scanlines)"/>
  
  <!-- Header Bar -->
  <rect x="0" y="0" width="1200" height="80" fill="white" opacity="0.95"/>
  <rect x="0" y="78" width="1200" height="2" fill="#F3F4F6"/>
  
  <!-- Logo -->
  <g transform="translate(60, 25)">
    <path d="M 5 5 L 15 15 L 5 25" stroke="url(#accent)" stroke-width="3" fill="none" stroke-linecap="round"/>
    <line x1="20" y1="25" x2="35" y2="25" stroke="url(#accent)" stroke-width="3" stroke-linecap="round"/>
  </g>
  <text x="110" y="50" font-family="'Fira Code', monospace" font-size="24" font-weight="600" fill="#1F2937">wonko</text>
  <text x="200" y="50" font-family="'Fira Code', monospace" font-size="24" font-weight="300" fill="#6B7280">dev</text>
  
  <!-- Nav Items -->
  <text x="950" y="50" font-family="'Fira Code', monospace" font-size="16" fill="#1F2937">Home</text>
  <text x="1030" y="50" font-family="'Fira Code', monospace" font-size="16" fill="#1F2937">Plugins</text>
  <text x="1120" y="50" font-family="'Fira Code', monospace" font-size="16" fill="#1F2937">Blog</text>
  
  <!-- Hero Content -->
  <text x="100" y="200" font-family="'Fira Code', monospace" font-size="18" fill="#10B981">$ wonkodev</text>
  <rect x="220" y="188" width="3" height="20" fill="#10B981">
    <animate attributeName="opacity" values="1;0;1" dur="1s" repeatCount="indefinite"/>
  </rect>
  
  <text x="100" y="280" font-family="'Fira Code', monospace" font-size="56" font-weight="700" fill="white">
    Creative Code
  </text>
  <text x="100" y="350" font-family="'Fira Code', monospace" font-size="56" font-weight="700" fill="white">
    Solutions
  </text>
  
  <text x="100" y="410" font-family="sans-serif" font-size="20" fill="rgba(255,255,255,0.9)">
    Building innovative WordPress plugins and development tools
  </text>
  <text x="100" y="445" font-family="sans-serif" font-size="20" fill="rgba(255,255,255,0.9)">
    with a quirky twist.
  </text>
  
  <text x="100" y="500" font-family="'Fira Code', monospace" font-size="16" fill="#9CA3AF">
    // Modern development meets creative thinking
  </text>
  
  <!-- CTA Buttons -->
  <rect x="100" y="540" width="200" height="50" fill="url(#accent)" rx="8"/>
  <text x="200" y="572" font-family="'Fira Code', monospace" font-size="16" font-weight="600" fill="white" text-anchor="middle">
    Browse Plugins →
  </text>
  
  <rect x="320" y="540" width="180" height="50" fill="transparent" stroke="white" stroke-width="2" rx="8"/>
  <text x="410" y="572" font-family="'Fira Code', monospace" font-size="16" font-weight="600" fill="white" text-anchor="middle">
    Get in Touch
  </text>
  
  <!-- Plugin Cards Preview -->
  <g transform="translate(0, 650)">
    <!-- Card 1 -->
    <rect x="60" y="0" width="340" height="200" fill="white" rx="8"/>
    <rect x="60" y="0" width="4" height="200" fill="url(#accent)" rx="8"/>
    <circle cx="100" cy="40" r="20" fill="url(#accent)"/>
    <text x="130" y="50" font-family="'Fira Code', monospace" font-size="18" font-weight="600" fill="#1F2937">Plugin Name</text>
    <text x="80" y="90" font-family="sans-serif" font-size="14" fill="#6B7280">Lorem ipsum dolor sit amet</text>
    <text x="80" y="110" font-family="sans-serif" font-size="14" fill="#6B7280">consectetur adipiscing elit.</text>
    <rect x="80" y="140" width="60" height="24" fill="#F3F4F6" rx="4"/>
    <rect x="150" y="140" width="60" height="24" fill="#F3F4F6" rx="4"/>
    
    <!-- Card 2 -->
    <rect x="430" y="0" width="340" height="200" fill="white" rx="8"/>
    <rect x="430" y="0" width="4" height="200" fill="url(#accent)" rx="8"/>
    <circle cx="470" cy="40" r="20" fill="url(#accent)"/>
    <text x="500" y="50" font-family="'Fira Code', monospace" font-size="18" font-weight="600" fill="#1F2937">Plugin Name</text>
    <text x="450" y="90" font-family="sans-serif" font-size="14" fill="#6B7280">Lorem ipsum dolor sit amet</text>
    <text x="450" y="110" font-family="sans-serif" font-size="14" fill="#6B7280">consectetur adipiscing elit.</text>
    <rect x="450" y="140" width="60" height="24" fill="#F3F4F6" rx="4"/>
    <rect x="520" y="140" width="60" height="24" fill="#F3F4F6" rx="4"/>
    
    <!-- Card 3 -->
    <rect x="800" y="0" width="340" height="200" fill="white" rx="8"/>
    <rect x="800" y="0" width="4" height="200" fill="url(#accent)" rx="8"/>
    <circle cx="840" cy="40" r="20" fill="url(#accent)"/>
    <text x="870" y="50" font-family="'Fira Code', monospace" font-size="18" font-weight="600" fill="#1F2937">Plugin Name</text>
    <text x="820" y="90" font-family="sans-serif" font-size="14" fill="#6B7280">Lorem ipsum dolor sit amet</text>
    <text x="820" y="110" font-family="sans-serif" font-size="14" fill="#6B7280">consectetur adipiscing elit.</text>
    <rect x="820" y="140" width="60" height="24" fill="#F3F4F6" rx="4"/>
    <rect x="890" y="140" width="60" height="24" fill="#F3F4F6" rx="4"/>
  </g>
</svg>
